<mxfile host="app.diagrams.net" modified="2022-07-27T06:37:19.081Z" agent="5.0 (Macintosh; Intel Mac OS X 10_15_7) AppleWebKit/605.1.15 (KHTML, like Gecko) Version/15.5 Safari/605.1.15" etag="17hK1qAZtiwp9BzggeP-" version="20.1.3" type="github">
  <diagram id="DTgO8CFfLf1k2DuU-l0j" name="第 1 页">
    <mxGraphModel dx="2253" dy="825" grid="1" gridSize="10" guides="1" tooltips="1" connect="1" arrows="1" fold="1" page="1" pageScale="1" pageWidth="827" pageHeight="1169" math="0" shadow="0">
      <root>
        <mxCell id="0" />
        <mxCell id="1" parent="0" />
        <mxCell id="irjKH5FzciRd0mTB3H-4-1" value="" style="shape=ext;double=1;rounded=0;whiteSpace=wrap;html=1;labelBackgroundColor=#FFFFFF;fontFamily=Helvetica;fontSize=18;fontColor=#333333;fillColor=#f5f5f5;strokeColor=#666666;" vertex="1" parent="1">
          <mxGeometry x="-10" y="60" width="890" height="420" as="geometry" />
        </mxCell>
        <mxCell id="irjKH5FzciRd0mTB3H-4-2" value="RPC" style="text;strokeColor=none;fillColor=none;html=1;fontSize=24;fontStyle=1;verticalAlign=middle;align=center;labelBackgroundColor=#FFFFFF;fontFamily=Helvetica;fontColor=#000000;" vertex="1" parent="1">
          <mxGeometry y="60" width="100" height="40" as="geometry" />
        </mxCell>
        <mxCell id="irjKH5FzciRd0mTB3H-4-8" style="edgeStyle=orthogonalEdgeStyle;rounded=0;orthogonalLoop=1;jettySize=auto;html=1;entryX=0.5;entryY=0;entryDx=0;entryDy=0;fontFamily=Helvetica;fontSize=18;fontColor=#000000;" edge="1" parent="1" source="irjKH5FzciRd0mTB3H-4-3" target="irjKH5FzciRd0mTB3H-4-4">
          <mxGeometry relative="1" as="geometry" />
        </mxCell>
        <mxCell id="irjKH5FzciRd0mTB3H-4-10" style="edgeStyle=orthogonalEdgeStyle;rounded=0;orthogonalLoop=1;jettySize=auto;html=1;exitX=0.75;exitY=1;exitDx=0;exitDy=0;fontFamily=Helvetica;fontSize=18;fontColor=#000000;" edge="1" parent="1" source="irjKH5FzciRd0mTB3H-4-3" target="irjKH5FzciRd0mTB3H-4-6">
          <mxGeometry relative="1" as="geometry" />
        </mxCell>
        <mxCell id="irjKH5FzciRd0mTB3H-4-12" style="edgeStyle=orthogonalEdgeStyle;rounded=0;orthogonalLoop=1;jettySize=auto;html=1;exitX=1;exitY=0.75;exitDx=0;exitDy=0;entryX=0.5;entryY=0;entryDx=0;entryDy=0;fontFamily=Helvetica;fontSize=18;fontColor=#000000;" edge="1" parent="1" source="irjKH5FzciRd0mTB3H-4-3" target="irjKH5FzciRd0mTB3H-4-7">
          <mxGeometry relative="1" as="geometry" />
        </mxCell>
        <mxCell id="irjKH5FzciRd0mTB3H-4-13" style="edgeStyle=orthogonalEdgeStyle;rounded=0;orthogonalLoop=1;jettySize=auto;html=1;exitX=0.25;exitY=1;exitDx=0;exitDy=0;fontFamily=Helvetica;fontSize=18;fontColor=#000000;" edge="1" parent="1" source="irjKH5FzciRd0mTB3H-4-3" target="irjKH5FzciRd0mTB3H-4-5">
          <mxGeometry relative="1" as="geometry" />
        </mxCell>
        <mxCell id="irjKH5FzciRd0mTB3H-4-3" value="&lt;pre style=&quot;text-align: start;&quot;&gt;&lt;font style=&quot;font-size: 18px; background-color: rgb(255, 255, 255);&quot; face=&quot;Helvetica&quot;&gt;ReportPieceResult&lt;/font&gt;&lt;/pre&gt;" style="shape=ext;double=1;rounded=1;whiteSpace=wrap;html=1;labelBackgroundColor=#FFFFFF;fontFamily=Helvetica;fontSize=18;fontColor=#000000;" vertex="1" parent="1">
          <mxGeometry x="319" y="100" width="190" height="80" as="geometry" />
        </mxCell>
        <mxCell id="irjKH5FzciRd0mTB3H-4-17" style="edgeStyle=orthogonalEdgeStyle;rounded=0;orthogonalLoop=1;jettySize=auto;html=1;exitX=0.75;exitY=1;exitDx=0;exitDy=0;fontFamily=Helvetica;fontSize=18;fontColor=#000000;" edge="1" parent="1" source="irjKH5FzciRd0mTB3H-4-4" target="irjKH5FzciRd0mTB3H-4-14">
          <mxGeometry relative="1" as="geometry" />
        </mxCell>
        <mxCell id="irjKH5FzciRd0mTB3H-4-18" style="edgeStyle=orthogonalEdgeStyle;rounded=0;orthogonalLoop=1;jettySize=auto;html=1;exitX=0.25;exitY=1;exitDx=0;exitDy=0;entryX=0.5;entryY=0;entryDx=0;entryDy=0;fontFamily=Helvetica;fontSize=18;fontColor=#000000;" edge="1" parent="1" source="irjKH5FzciRd0mTB3H-4-4" target="irjKH5FzciRd0mTB3H-4-15">
          <mxGeometry relative="1" as="geometry" />
        </mxCell>
        <mxCell id="irjKH5FzciRd0mTB3H-4-4" value="Begin Piece" style="shape=ext;double=1;rounded=1;whiteSpace=wrap;html=1;labelBackgroundColor=#FFFFFF;fontFamily=Helvetica;fontSize=18;fontColor=#000000;" vertex="1" parent="1">
          <mxGeometry x="110" y="230" width="120" height="80" as="geometry" />
        </mxCell>
        <mxCell id="irjKH5FzciRd0mTB3H-4-20" style="edgeStyle=orthogonalEdgeStyle;rounded=0;orthogonalLoop=1;jettySize=auto;html=1;exitX=0.5;exitY=1;exitDx=0;exitDy=0;entryX=0.5;entryY=0;entryDx=0;entryDy=0;fontFamily=Helvetica;fontSize=18;fontColor=#000000;" edge="1" parent="1" source="irjKH5FzciRd0mTB3H-4-5" target="irjKH5FzciRd0mTB3H-4-19">
          <mxGeometry relative="1" as="geometry" />
        </mxCell>
        <mxCell id="irjKH5FzciRd0mTB3H-4-5" value="End piece" style="shape=ext;double=1;rounded=1;whiteSpace=wrap;html=1;labelBackgroundColor=#FFFFFF;fontFamily=Helvetica;fontSize=18;fontColor=#000000;" vertex="1" parent="1">
          <mxGeometry x="300" y="220" width="120" height="80" as="geometry" />
        </mxCell>
        <mxCell id="irjKH5FzciRd0mTB3H-4-22" style="edgeStyle=orthogonalEdgeStyle;rounded=0;orthogonalLoop=1;jettySize=auto;html=1;exitX=0.5;exitY=1;exitDx=0;exitDy=0;entryX=0.5;entryY=0;entryDx=0;entryDy=0;fontFamily=Helvetica;fontSize=18;fontColor=#000000;" edge="1" parent="1" source="irjKH5FzciRd0mTB3H-4-6" target="irjKH5FzciRd0mTB3H-4-21">
          <mxGeometry relative="1" as="geometry" />
        </mxCell>
        <mxCell id="irjKH5FzciRd0mTB3H-4-6" value="success" style="shape=ext;double=1;rounded=1;whiteSpace=wrap;html=1;labelBackgroundColor=#FFFFFF;fontFamily=Helvetica;fontSize=18;fontColor=#000000;" vertex="1" parent="1">
          <mxGeometry x="490" y="230" width="120" height="80" as="geometry" />
        </mxCell>
        <mxCell id="irjKH5FzciRd0mTB3H-4-24" style="edgeStyle=orthogonalEdgeStyle;rounded=0;orthogonalLoop=1;jettySize=auto;html=1;exitX=0.5;exitY=1;exitDx=0;exitDy=0;fontFamily=Helvetica;fontSize=18;fontColor=#000000;" edge="1" parent="1" source="irjKH5FzciRd0mTB3H-4-7" target="irjKH5FzciRd0mTB3H-4-23">
          <mxGeometry relative="1" as="geometry" />
        </mxCell>
        <mxCell id="irjKH5FzciRd0mTB3H-4-7" value="fail" style="shape=ext;double=1;rounded=1;whiteSpace=wrap;html=1;labelBackgroundColor=#FFFFFF;fontFamily=Helvetica;fontSize=18;fontColor=#000000;" vertex="1" parent="1">
          <mxGeometry x="660" y="230" width="120" height="80" as="geometry" />
        </mxCell>
        <mxCell id="irjKH5FzciRd0mTB3H-4-14" value="normal状态&lt;br&gt;分配parent" style="shape=ext;double=1;rounded=1;whiteSpace=wrap;html=1;labelBackgroundColor=#FFFFFF;fontFamily=Helvetica;fontSize=18;fontColor=#000000;" vertex="1" parent="1">
          <mxGeometry x="210" y="360" width="120" height="80" as="geometry" />
        </mxCell>
        <mxCell id="irjKH5FzciRd0mTB3H-4-15" value="tiny/small/backsource分配parent&lt;br&gt;调整状态机" style="shape=ext;double=1;rounded=1;whiteSpace=wrap;html=1;labelBackgroundColor=#FFFFFF;fontFamily=Helvetica;fontSize=18;fontColor=#000000;" vertex="1" parent="1">
          <mxGeometry x="10" y="360" width="190" height="80" as="geometry" />
        </mxCell>
        <mxCell id="irjKH5FzciRd0mTB3H-4-19" value="do nothing" style="shape=ext;double=1;rounded=1;whiteSpace=wrap;html=1;labelBackgroundColor=#FFFFFF;fontFamily=Helvetica;fontSize=18;fontColor=#000000;" vertex="1" parent="1">
          <mxGeometry x="350" y="360" width="120" height="80" as="geometry" />
        </mxCell>
        <mxCell id="irjKH5FzciRd0mTB3H-4-21" value="更新内存中的map信息peer/task/host" style="shape=ext;double=1;rounded=1;whiteSpace=wrap;html=1;labelBackgroundColor=#FFFFFF;fontFamily=Helvetica;fontSize=18;fontColor=#000000;" vertex="1" parent="1">
          <mxGeometry x="490" y="360" width="160" height="80" as="geometry" />
        </mxCell>
        <mxCell id="irjKH5FzciRd0mTB3H-4-23" value="更新黑名单，重新调度" style="shape=ext;double=1;rounded=1;whiteSpace=wrap;html=1;labelBackgroundColor=#FFFFFF;fontFamily=Helvetica;fontSize=18;fontColor=#000000;" vertex="1" parent="1">
          <mxGeometry x="660" y="360" width="190" height="80" as="geometry" />
        </mxCell>
      </root>
    </mxGraphModel>
  </diagram>
</mxfile>
